<?xml version="1.0" encoding="utf-8"?>
<!-- Generator: Adobe Illustrator 16.0.0, SVG Export Plug-In . SVG Version: 6.00 Build 0)  -->
<!DOCTYPE svg PUBLIC "-//W3C//DTD SVG 1.1//EN" "http://www.w3.org/Graphics/SVG/1.1/DTD/svg11.dtd">
<svg version="1.1" id="Layer_1" xmlns="http://www.w3.org/2000/svg" xmlns:xlink="http://www.w3.org/1999/xlink" x="0px" y="0px"
	 width="277.833px" height="309.529px" viewBox="0 0 277.833 309.529" enable-background="new 0 0 277.833 309.529"
	 xml:space="preserve">
<polygon fill="#B0461C" points="88.236,294.046 73.106,309.49 29.927,306.76 3.687,286.986 65.158,267.476 111.662,275.227 
	100.831,283.197 68.164,283.863 68.296,288.178 "/>
<path fill="#B0461C" d="M230.618,271.548l6.991-3.555l-51.985,0.816l-45.707,9.232l0.681,6.725l9.998,0.163l-1,6.007l3,3.753
	l11.593,1.986l-2.093-4.696l5.974-4.136l33.128,3.711l-1.409,3.494l-10.718,3.602l22.613-2.084l4.781-3.854l14.242,1.079l3.74-3.695
	l42.842-9.856l-20.025-6.508l-20.168,1.945L230.618,271.548z"/>
<g>
	<g>
		<polygon fill="#64B0B8" points="77.64,67.234 86.637,87.091 86.129,89.354 88.717,89.354 88.543,91.027 90.442,89.354 
			110.647,90.737 113.758,101.797 83.688,106.809 77.64,99.377 		"/>
		<polygon fill="#64B0B8" points="33.054,57.211 27.005,62.049 27.005,69.999 22.857,99.551 24.24,102.184 21.292,102.863 
			22.651,104.927 20.271,104.927 16.81,115.449 12.316,140.162 21.648,144.655 33.054,126.51 36.164,104.217 		"/>
		<polygon fill="#64B0B8" points="116.696,100.934 125.682,104.562 135.014,104.562 135.014,102.748 130.521,102.748 
			130.521,100.934 135.014,100.934 136.224,99.205 136.224,98.168 134.149,98.168 130.521,98.168 125.682,96.959 123.781,93.156 
			127.929,94.193 130.176,93.156 129.829,91.428 127.929,91.428 125.854,91.428 122.917,89.354 118.425,89.354 115.312,90.564 
			113.758,91.082 		"/>
		<polygon fill="#64B0B8" points="12.316,142.236 6.786,144.655 4.886,147.593 0.179,150.791 0.179,152.346 4.035,151.109 
			6.613,150.703 6.64,154.104 4.021,164.184 5.208,164.522 8.528,157.1 8.854,157.425 6.959,164.184 8.342,165.221 11.197,158.076 
			12.043,158.402 10.223,165.221 11.848,166.15 14.062,158.923 14.714,159.184 14.062,162.113 15.17,163.025 19.401,152.95 
			19.401,147.938 19.401,146.393 		"/>
		<polygon fill="#64B0B8" points="36.164,142.236 74.162,142.236 79.483,209.662 77.64,264.225 62.433,271.35 65.833,211.363 
			62.162,170.283 56.719,170.831 55.779,216.545 56.989,289.435 47.052,294.915 36.164,294.915 		"/>
		<polygon fill="#64B0B8" points="68.136,300.395 62.433,304.231 47.052,302.312 43.423,297.107 47.052,297.107 56.989,292.175 		
			"/>
		<polygon fill="#64B0B8" points="93.135,269.156 90.358,274.09 65.833,271.623 79.483,265.32 		"/>
		<path fill="#64B0B8" d="M68.136,54.965l-23.157-3.803l-10.554,5.081l2.949,40.542l-0.863,43.377l39.574-2.938V95.662l0.789-33.422
			L68.136,54.965z M67.571,78.119l-1.996-2.795l-0.998-5.988h5.987l0.845,6.588L67.571,78.119z"/>
		<polygon fill="#64B0B8" points="64.483,43.676 67.892,43.676 70.516,39.053 71.785,26.883 70.516,14.47 62.536,6.438 
			53.043,4.247 44.525,5.951 38.685,10.818 36.164,26.396 42.335,33.941 47.689,38.565 53.975,42.459 		"/>
		<polygon fill="#64B0B8" points="48.822,37.582 46.591,50.188 62.609,52.42 65.833,40.482 		"/>
		<polygon fill="#B82F23" points="153.951,82.334 150.417,79.727 140.531,77.463 134.117,71.879 133.395,69.826 139.109,65.271 
			146.078,72.363 146.797,71.77 143.776,69.766 141.932,67.764 143.158,66.828 147.416,65.896 151.078,67.594 153.208,70.898 
			154.718,74.143 158.038,76.482 		"/>
		<polygon fill="#191919" points="201.203,1.65 194.516,4.477 190.838,8.01 189.188,12.086 192.723,16.726 199.554,19.082 
			194.516,28.976 186.834,28.976 179.74,23.172 177.881,15.196 181.886,6.85 186.834,1.65 192.252,0 		"/>
		<polygon fill="#191919" points="230.648,4.712 237.951,2.592 245.254,4.712 249.729,9.424 251.143,18.139 247.138,24.028 
			242.898,27.797 232.008,32.296 230.549,40.336 224.542,32.981 220.361,33.185 215.328,34.67 213.346,35.467 205.249,34.708 
			199.156,33.185 196.949,36.588 193.02,37.322 196.02,28.976 201.203,17.904 208.034,16.02 220.756,16.961 225.938,16.726 
			230.412,19.553 236.991,18.994 241.014,14.488 241.955,10.836 239.836,6.85 237.716,5.654 		"/>
		<polygon fill="#191919" points="191.78,31.331 186.598,31.331 178.824,35.336 177.881,37.691 179.95,37.691 185.891,37.691 
			188.718,34.51 191.78,33.451 		"/>
		<path fill="#191919" d="M228.32,38.24l-4.623-1.162l-8.469-2.567l-10.223,0.104l-7.658,3.367l-6.971-0.452l-1.94,2.493
			l0.204,4.803l5.85,6.512l5.525,5.229l2.389,0.724l4.281-0.836l3.824,0.684l4.256,0.815l3.697-1.251l3.506-2.967l6.144-6.198
			l1.972-6.511L228.32,38.24z M200.361,51.516l-8.673-7.366l0.988-3.257l3.255,0.987l6.277,9.013L200.361,51.516z M226.055,46.501
			l-8.044,6.215l-2.257-0.685l1.889-3.574l7.076-6.151l2.39,0.724L226.055,46.501z"/>
		<polygon fill="#191919" points="202.209,60.069 206.62,57.954 212.982,60.069 211.803,61.718 206.15,61.718 203.559,61.718 		"/>
		<polygon fill="#191919" points="227.108,53.326 226.095,68.592 206.898,69.991 204.272,70.146 204.699,65.965 204.019,62.972 
			212.982,62.567 		"/>
		<polygon fill="#191919" points="202.209,16.167 206.253,12.716 223.986,14.295 225.406,15.87 208.549,14.83 		"/>
		<polygon fill="#B82F23" points="232.894,65.08 251.381,63.594 250.692,70.766 231.854,68.352 		"/>
		<polygon fill="#B82F23" points="197.871,66.627 178.715,67.548 183.963,71.579 197.871,69.154 		"/>
		<polygon fill="#B82F23" points="177.371,70.082 175.758,74.919 176.564,76.531 178.715,71.579 		"/>
		<polygon fill="#B82F23" points="181.164,73.307 178.715,78.145 179.938,78.145 182.543,73.432 		"/>
		<polygon fill="#B82F23" points="254.02,63.936 252.326,66.492 257.294,68.613 257.896,67.481 		"/>
		<polygon fill="#B82F23" points="252.187,69.344 251.909,72.24 255.241,75.428 257.131,73.477 		"/>
		<polygon fill="#191919" points="136.224,75.416 132.844,77.662 134.117,79.91 137.987,77.197 		"/>
		<polygon fill="#C3E5E7" points="129.679,56.012 126.314,62.016 129.679,72.363 		"/>
		<polygon fill="#C3E5E7" points="127.996,42.022 123.742,47.234 125.869,55 		"/>
		<polygon fill="#C3E5E7" points="119.983,33.911 122.357,40.463 119.983,43.676 		"/>
		<polygon fill="#191919" points="233.209,33.346 237.41,33.346 244.876,37.447 244.876,41.549 237.691,40.336 236.516,36.125 
			232.409,34.511 		"/>
		<path fill="#B82F23" d="M246.436,72.363l-26.661-1.785l-16.771,0.967l-18.173,2.258l0.781,3.859l-4.25,8.701l-0.351,2.105
			l-1.228-0.352l-0.526,3.684l-1.228-2.455l-2.28,1.402l0.701-3.156l-16.149-12.176l-6.643,8.305l16.271,32.861l8.993,6.318
			l1.401,7.729v11.607l10.317,23.118l6.574,1.728l30.686,1.536l7.362-0.269l7.559-14.156l2.13-22.111l7.079-1l16.232-13.833
			l-5.178-27.895L246.436,72.363z M212.92,106.297l5.853,3.998l1.024-0.364l-3.241-1.849l0.511-1.084l6.124,0.766l-0.636,6.609
			l-2.758,7.05l-8.184-5.063L212.92,106.297z M240.41,109.582v-6.5l5.285,3.727L240.41,109.582z"/>
		<g>
			<polygon fill="#191919" points="194.999,224.029 200.5,265.196 204.941,267.224 212.291,265.254 206.999,223.529 210.79,192.291 
				215.175,192.467 215.319,196.336 222.684,269.309 226.978,271.77 232.403,271.688 231.631,184.057 233.735,175.016 
				233.735,169.227 191.78,168.618 193.499,186.029 			"/>
		</g>
		<polygon fill="#191919" points="187.537,274.095 189.6,278.417 200.521,276.628 213.175,271.148 212.291,266.434 205.534,268.312 
			200.307,266.236 		"/>
	</g>
	<polygon fill="#191919" points="197.945,39.68 197.216,40.662 197.58,41.287 198.587,41.287 199.436,40.228 	"/>
	<polygon fill="#191919" points="214.899,40.414 214.512,41.085 215.499,41.694 216.699,41.287 216.486,39.974 	"/>
	<polygon fill="#191919" points="199.877,33.045 199.082,34.503 199.877,35.486 201.555,35.18 201.555,33.398 	"/>
	<polygon fill="#191919" points="220.473,33.051 219.861,34.747 220.473,35.48 221.756,35.48 222.672,35.48 222.918,33.051 	"/>
	<polygon fill="#64B0B8" points="38.353,296.492 38.353,300.297 43.999,304.231 61.551,306.312 69.161,303.242 68.136,301.402 
		61.551,305.207 45.718,303.12 42.648,297.597 	"/>
	<polygon fill="#64B0B8" points="62.777,272.926 62.777,275.749 67.197,275.749 67.197,274.654 90.763,276.73 94.322,271.898 
		93.83,269.705 90.149,275.258 67.197,273.049 	"/>
	<polygon fill="#191919" points="187.144,274.782 186.652,277.435 189.207,280.873 200.952,279.196 213.61,272.863 213.61,271.363 
		200.537,277.246 189.403,279.104 	"/>
	<polygon fill="#191919" points="211.125,281.211 215.129,287.174 226.565,282.158 231.825,274.048 231.948,271.986 
		226.629,272.042 222.36,270.244 	"/>
	<polygon fill="#191919" points="210.831,282.286 210.971,286.445 215.518,291.252 228.179,285.454 232.977,275.604 
		232.339,274.105 226.894,282.953 215.146,288.312 	"/>
</g>
</svg>
